<svg width="128" height="128" viewBox="0 0 128 128" fill="none" xmlns="http://www.w3.org/2000/svg">
<g filter="url(#filter0_dd_1014_405)">
<circle cx="64" cy="60" r="60" fill="url(#paint0_linear_1014_405)" shape-rendering="crispEdges"/>
</g>
<g clip-path="url(#clip0_1014_405)">
<path d="M75.5745 38.4545C75.2295 39.6275 74.85 41.0075 74.85 43.664L84.786 53.6H86.925V63.26L80.1975 64.7435L76.092 79.475H69.675V74.3H54.15V79.475H47.6985C45.4905 71.747 42.075 58.637 42.075 53.6C42.075 47.9075 46.7325 43.25 52.425 43.25H69.33C70.4685 41.2835 72.5385 39.2825 75.5745 38.4545ZM78.3 32.9C70.8135 32.9 66.7425 38.075 66.7425 38.075H52.425C43.9725 38.075 36.9 44.8715 36.9 53.6C36.9 61.6385 43.8 84.65 43.8 84.65H59.325V79.475H64.5V84.65H80.025L84.3375 69.125L92.1 67.4V48.425H86.925L80.025 41.525C80.025 40.283 81.75 38.144 81.75 36.35C81.75 34.4525 80.1975 32.9 78.3 32.9ZM67.95 51.875H54.15V46.7H67.95V51.875ZM75.7125 57.05C74.298 57.05 73.125 55.877 73.125 54.4625C73.125 53.048 74.298 51.875 75.7125 51.875C77.127 51.875 78.3 53.048 78.3 54.4625C78.3 55.877 77.127 57.05 75.7125 57.05Z" fill="white"/>
</g>
<defs>
<filter id="filter0_dd_1014_405" x="0" y="0" width="128" height="128" filterUnits="userSpaceOnUse" color-interpolation-filters="sRGB">
<feFlood flood-opacity="0" result="BackgroundImageFix"/>
<feColorMatrix in="SourceAlpha" type="matrix" values="0 0 0 0 0 0 0 0 0 0 0 0 0 0 0 0 0 0 127 0" result="hardAlpha"/>
<feOffset dy="4"/>
<feGaussianBlur stdDeviation="2"/>
<feComposite in2="hardAlpha" operator="out"/>
<feColorMatrix type="matrix" values="0 0 0 0 0 0 0 0 0 0 0 0 0 0 0 0 0 0 0.25 0"/>
<feBlend mode="normal" in2="BackgroundImageFix" result="effect1_dropShadow_1014_405"/>
<feColorMatrix in="SourceAlpha" type="matrix" values="0 0 0 0 0 0 0 0 0 0 0 0 0 0 0 0 0 0 127 0" result="hardAlpha"/>
<feOffset dy="4"/>
<feGaussianBlur stdDeviation="2"/>
<feComposite in2="hardAlpha" operator="out"/>
<feColorMatrix type="matrix" values="0 0 0 0 0 0 0 0 0 0 0 0 0 0 0 0 0 0 0.25 0"/>
<feBlend mode="normal" in2="effect1_dropShadow_1014_405" result="effect2_dropShadow_1014_405"/>
<feBlend mode="normal" in="SourceGraphic" in2="effect2_dropShadow_1014_405" result="shape"/>
</filter>
<linearGradient id="paint0_linear_1014_405" x1="4" y1="56" x2="267" y2="56" gradientUnits="userSpaceOnUse">
<stop stop-color="#3626C4"/>
<stop offset="1" stop-color="#9428C7" stop-opacity="0.81"/>
</linearGradient>
<clipPath id="clip0_1014_405">
<rect width="69" height="69" fill="white" transform="translate(30 26)"/>
</clipPath>
</defs>
</svg>
