<svg width="45" height="55" viewBox="0 0 45 55" fill="none" xmlns="http://www.w3.org/2000/svg">
<path d="M38.75 18.6667H36.0416V13.5C36.0416 6.37001 29.975 0.583344 22.5 0.583344C15.025 0.583344 8.95831 6.37001 8.95831 13.5V18.6667H6.24998C3.27081 18.6667 0.833313 20.9917 0.833313 23.8333V49.6667C0.833313 52.5083 3.27081 54.8333 6.24998 54.8333H38.75C41.7291 54.8333 44.1666 52.5083 44.1666 49.6667V23.8333C44.1666 20.9917 41.7291 18.6667 38.75 18.6667ZM14.375 13.5C14.375 9.21168 18.0041 5.75001 22.5 5.75001C26.9958 5.75001 30.625 9.21168 30.625 13.5V18.6667H14.375V13.5ZM38.75 49.6667H6.24998V23.8333H38.75V49.6667ZM22.5 41.9167C25.4791 41.9167 27.9166 39.5917 27.9166 36.75C27.9166 33.9083 25.4791 31.5833 22.5 31.5833C19.5208 31.5833 17.0833 33.9083 17.0833 36.75C17.0833 39.5917 19.5208 41.9167 22.5 41.9167Z" fill="white"/>
</svg>
