<svg width="128" height="128" viewBox="0 0 128 128" fill="none" xmlns="http://www.w3.org/2000/svg">
<g filter="url(#filter0_dd_1014_403)">
<circle cx="64" cy="60" r="60" fill="url(#paint0_linear_1014_403)" shape-rendering="crispEdges"/>
</g>
<g clip-path="url(#clip0_1014_403)">
<path d="M79.75 51.6667H77.0416V46.5C77.0416 39.37 70.975 33.5833 63.5 33.5833C56.025 33.5833 49.9583 39.37 49.9583 46.5V51.6667H47.25C44.2708 51.6667 41.8333 53.9917 41.8333 56.8333V82.6667C41.8333 85.5083 44.2708 87.8333 47.25 87.8333H79.75C82.7291 87.8333 85.1666 85.5083 85.1666 82.6667V56.8333C85.1666 53.9917 82.7291 51.6667 79.75 51.6667ZM55.375 46.5C55.375 42.2117 59.0041 38.75 63.5 38.75C67.9958 38.75 71.625 42.2117 71.625 46.5V51.6667H55.375V46.5ZM79.75 82.6667H47.25V56.8333H79.75V82.6667ZM63.5 74.9167C66.4791 74.9167 68.9166 72.5917 68.9166 69.75C68.9166 66.9083 66.4791 64.5833 63.5 64.5833C60.5208 64.5833 58.0833 66.9083 58.0833 69.75C58.0833 72.5917 60.5208 74.9167 63.5 74.9167Z" fill="white"/>
</g>
<defs>
<filter id="filter0_dd_1014_403" x="0" y="0" width="128" height="128" filterUnits="userSpaceOnUse" color-interpolation-filters="sRGB">
<feFlood flood-opacity="0" result="BackgroundImageFix"/>
<feColorMatrix in="SourceAlpha" type="matrix" values="0 0 0 0 0 0 0 0 0 0 0 0 0 0 0 0 0 0 127 0" result="hardAlpha"/>
<feOffset dy="4"/>
<feGaussianBlur stdDeviation="2"/>
<feComposite in2="hardAlpha" operator="out"/>
<feColorMatrix type="matrix" values="0 0 0 0 0 0 0 0 0 0 0 0 0 0 0 0 0 0 0.25 0"/>
<feBlend mode="normal" in2="BackgroundImageFix" result="effect1_dropShadow_1014_403"/>
<feColorMatrix in="SourceAlpha" type="matrix" values="0 0 0 0 0 0 0 0 0 0 0 0 0 0 0 0 0 0 127 0" result="hardAlpha"/>
<feOffset dy="4"/>
<feGaussianBlur stdDeviation="2"/>
<feComposite in2="hardAlpha" operator="out"/>
<feColorMatrix type="matrix" values="0 0 0 0 0 0 0 0 0 0 0 0 0 0 0 0 0 0 0.25 0"/>
<feBlend mode="normal" in2="effect1_dropShadow_1014_403" result="effect2_dropShadow_1014_403"/>
<feBlend mode="normal" in="SourceGraphic" in2="effect2_dropShadow_1014_403" result="shape"/>
</filter>
<linearGradient id="paint0_linear_1014_403" x1="4" y1="56" x2="267" y2="56" gradientUnits="userSpaceOnUse">
<stop stop-color="#3626C4"/>
<stop offset="1" stop-color="#9428C7" stop-opacity="0.81"/>
</linearGradient>
<clipPath id="clip0_1014_403">
<rect width="65" height="62" fill="white" transform="translate(31 31)"/>
</clipPath>
</defs>
</svg>
