<svg width="57" height="53" viewBox="0 0 57 53" fill="none" xmlns="http://www.w3.org/2000/svg">
<path d="M39.5745 6.45449C39.2295 7.62749 38.85 9.00749 38.85 11.664L48.786 21.6H50.925V31.26L44.1975 32.7435L40.092 47.475H33.675V42.3H18.15V47.475H11.6985C9.49049 39.747 6.07499 26.637 6.07499 21.6C6.07499 15.9075 10.7325 11.25 16.425 11.25H33.33C34.4685 9.28349 36.5385 7.28249 39.5745 6.45449ZM42.3 0.899994C34.8135 0.899994 30.7425 6.07499 30.7425 6.07499H16.425C7.97249 6.07499 0.899994 12.8715 0.899994 21.6C0.899994 29.6385 7.79999 52.65 7.79999 52.65H23.325V47.475H28.5V52.65H44.025L48.3375 37.125L56.1 35.4V16.425H50.925L44.025 9.52499C44.025 8.28299 45.75 6.14399 45.75 4.34999C45.75 2.45249 44.1975 0.899994 42.3 0.899994ZM31.95 19.875H18.15V14.7H31.95V19.875ZM39.7125 25.05C38.298 25.05 37.125 23.877 37.125 22.4625C37.125 21.048 38.298 19.875 39.7125 19.875C41.127 19.875 42.3 21.048 42.3 22.4625C42.3 23.877 41.127 25.05 39.7125 25.05Z" fill="white"/>
</svg>
