<svg width="128" height="128" viewBox="0 0 128 128" fill="none" xmlns="http://www.w3.org/2000/svg">
<g filter="url(#filter0_dd_1014_404)">
<circle cx="64" cy="60" r="60" fill="url(#paint0_linear_1014_404)" shape-rendering="crispEdges"/>
</g>
<g clip-path="url(#clip0_1014_404)">
<path d="M64 33.5833L40.75 43.9167V59.4167C40.75 73.7542 50.67 87.1617 64 90.4167C77.33 87.1617 87.25 73.7542 87.25 59.4167V43.9167L64 33.5833ZM82.0833 59.4167C82.0833 71.0933 74.385 81.8658 64 85.0692C53.615 81.8658 45.9167 71.0933 45.9167 59.4167V47.275L64 39.2408L82.0833 47.275V59.4167ZM52.1425 60.9408L48.5 64.5833L58.8333 74.9167L79.5 54.25L75.8575 50.5817L58.8333 67.6058L52.1425 60.9408Z" fill="white"/>
</g>
<defs>
<filter id="filter0_dd_1014_404" x="0" y="0" width="128" height="128" filterUnits="userSpaceOnUse" color-interpolation-filters="sRGB">
<feFlood flood-opacity="0" result="BackgroundImageFix"/>
<feColorMatrix in="SourceAlpha" type="matrix" values="0 0 0 0 0 0 0 0 0 0 0 0 0 0 0 0 0 0 127 0" result="hardAlpha"/>
<feOffset dy="4"/>
<feGaussianBlur stdDeviation="2"/>
<feComposite in2="hardAlpha" operator="out"/>
<feColorMatrix type="matrix" values="0 0 0 0 0 0 0 0 0 0 0 0 0 0 0 0 0 0 0.25 0"/>
<feBlend mode="normal" in2="BackgroundImageFix" result="effect1_dropShadow_1014_404"/>
<feColorMatrix in="SourceAlpha" type="matrix" values="0 0 0 0 0 0 0 0 0 0 0 0 0 0 0 0 0 0 127 0" result="hardAlpha"/>
<feOffset dy="4"/>
<feGaussianBlur stdDeviation="2"/>
<feComposite in2="hardAlpha" operator="out"/>
<feColorMatrix type="matrix" values="0 0 0 0 0 0 0 0 0 0 0 0 0 0 0 0 0 0 0.25 0"/>
<feBlend mode="normal" in2="effect1_dropShadow_1014_404" result="effect2_dropShadow_1014_404"/>
<feBlend mode="normal" in="SourceGraphic" in2="effect2_dropShadow_1014_404" result="shape"/>
</filter>
<linearGradient id="paint0_linear_1014_404" x1="4" y1="56" x2="267" y2="56" gradientUnits="userSpaceOnUse">
<stop stop-color="#3626C4"/>
<stop offset="1" stop-color="#9428C7" stop-opacity="0.81"/>
</linearGradient>
<clipPath id="clip0_1014_404">
<rect width="62" height="62" fill="white" transform="translate(33 31)"/>
</clipPath>
</defs>
</svg>
