<svg width="179" height="39" viewBox="0 0 179 39" fill="none" xmlns="http://www.w3.org/2000/svg">
<path d="M72.7671 16.3332C72.1922 11.7281 68.5815 9.07996 63.8008 9.07996C58.3443 9.07996 54.1788 12.7991 54.1788 19.3221C54.1788 25.8257 58.2737 29.5643 63.8008 29.5643C69.0959 29.5643 72.2931 26.1665 72.7671 22.496L68.3495 22.4766C67.936 24.6087 66.2012 25.8355 63.8714 25.8355C60.7346 25.8355 58.6065 23.5865 58.6065 19.3221C58.6065 15.1746 60.7044 12.8088 63.9016 12.8088C66.292 12.8088 68.0167 14.1426 68.3495 16.3332H72.7671Z" fill="#081946"/>
<path d="M74.6821 29.2917H78.9787V20.8312C78.9787 18.9911 80.3705 17.7254 82.2667 17.7254C82.8618 17.7254 83.6787 17.8228 84.0822 17.9494V14.2692C83.6989 14.1816 83.1643 14.1232 82.7306 14.1232C80.9959 14.1232 79.5737 15.0967 79.0089 16.9466H78.8476V14.3373H74.6821V29.2917Z" fill="#081946"/>
<path d="M88.2916 34.8996C91.4889 34.8996 93.1833 33.3224 94.0608 30.9079L100.082 14.3568L95.5333 14.3373L92.2957 25.3195H92.1344L88.927 14.3373H84.4085L89.9659 29.7201L89.7137 30.3529C89.1489 31.7549 88.0697 31.823 86.5568 31.3752L85.5886 34.4712C86.2038 34.7243 87.2023 34.8996 88.2916 34.8996Z" fill="#081946"/>
<path d="M101.145 34.8996H105.441V26.8967H105.572C106.168 28.1429 107.469 29.5351 109.97 29.5351C113.5 29.5351 116.253 26.8383 116.253 21.834C116.253 16.6934 113.379 14.1426 109.98 14.1426C107.388 14.1426 106.147 15.6322 105.572 16.8492H105.381V14.3373H101.145V34.8996ZM105.351 21.8145C105.351 19.1469 106.521 17.4431 108.608 17.4431C110.736 17.4431 111.866 19.2248 111.866 21.8145C111.866 24.4237 110.716 26.2346 108.608 26.2346C106.541 26.2346 105.351 24.4822 105.351 21.8145Z" fill="#081946"/>
<path d="M126.222 14.3373H123.307V10.7545H119.011V14.3373H116.893V17.4528H119.011V25.2416C118.99 28.1721 121.058 29.6227 124.175 29.4962C125.284 29.4572 126.071 29.243 126.504 29.1067L125.829 26.0204C125.617 26.0594 125.163 26.1567 124.76 26.1567C123.902 26.1567 123.307 25.8452 123.307 24.6964V17.4528H126.222V14.3373Z" fill="#081946"/>
<path d="M134.718 29.5838C139.418 29.5838 142.343 26.478 142.343 21.8729C142.343 17.2386 139.418 14.1426 134.718 14.1426C130.018 14.1426 127.093 17.2386 127.093 21.8729C127.093 26.478 130.018 29.5838 134.718 29.5838ZM134.738 26.3709C132.57 26.3709 131.46 24.453 131.46 21.8437C131.46 19.2345 132.57 17.3068 134.738 17.3068C136.866 17.3068 137.976 19.2345 137.976 21.8437C137.976 24.453 136.866 26.3709 134.738 26.3709Z" fill="#081946"/>
<path d="M163.063 19.3221C163.063 12.7991 158.867 9.07996 153.391 9.07996C147.884 9.07996 143.718 12.7991 143.718 19.3221C143.718 25.816 147.884 29.5643 153.391 29.5643C154.682 29.5643 155.902 29.3599 157.012 28.9509L158.676 30.9273H162.75L159.795 27.3445C161.812 25.6018 163.063 22.8757 163.063 19.3221ZM151.878 22.3597L154.52 25.7284C154.167 25.7965 153.784 25.8355 153.391 25.8355C150.214 25.8355 148.146 23.5475 148.146 19.3221C148.146 15.0967 150.214 12.8088 153.391 12.8088C156.558 12.8088 158.635 15.0967 158.635 19.3221C158.635 21.4932 158.081 23.1581 157.122 24.2582L155.589 22.3597H151.878Z" fill="#081946"/>
<path d="M172.081 29.5838C176.206 29.5838 178.798 27.2472 179 23.8104H174.945C174.693 25.4071 173.604 26.3028 172.131 26.3028C170.124 26.3028 168.823 24.6769 168.823 21.8145C168.823 18.9911 170.134 17.375 172.131 17.375C173.705 17.375 174.713 18.3777 174.945 19.8673H179C178.818 16.4111 176.105 14.1426 172.061 14.1426C167.361 14.1426 164.456 17.2873 164.456 21.8729C164.456 26.4196 167.31 29.5838 172.081 29.5838Z" fill="#081946"/>
<path fill-rule="evenodd" clip-rule="evenodd" d="M19.2728 38.104C29.9168 38.104 38.5456 29.7747 38.5456 19.5001C38.5456 9.22538 29.9168 0.896118 19.2728 0.896118C8.62872 0.896118 0 9.22538 0 19.5001C0 29.7747 8.62872 38.104 19.2728 38.104ZM29.8917 20.758C29.3922 18.7062 27.3939 17.2578 24.8961 17.2578C22.0235 17.2578 19.7755 19.3097 19.7755 21.8442C19.7755 23.0512 20.2751 24.0167 21.0244 24.8616C15.5292 24.7409 11.158 20.5166 11.158 15.3267C11.158 10.0162 15.779 5.79183 21.3991 5.79183C24.8961 5.79183 28.0184 7.2402 31.0158 10.499C34.6811 14.91 34.9419 20.2222 34.0716 23.2793C33.2012 26.3364 29.891 30.6003 27.1975 31.2498C27.4744 30.6264 27.7851 29.9965 28.0992 29.36C29.4506 26.621 30.8624 23.7598 29.8917 20.758Z" fill="#2424BF"/>
</svg>
