<svg width="132" height="33" viewBox="0 0 132 33" fill="none" xmlns="http://www.w3.org/2000/svg">
<path d="M1 8.32267L8.51355 2.00926C8.88549 1.69673 9.42824 1.69673 9.80018 2.00926L13.2353 4.89569L16.3592 7.52062C16.849 7.93221 17.594 7.78431 17.8895 7.21683L19.1207 4.8522C19.5498 4.02794 20.7731 4.18367 20.9821 5.08917L23.317 15.2078C23.3395 15.3052 23.3764 15.3986 23.4265 15.485L27.165 21.9262C27.3728 22.284 27.7794 22.477 28.188 22.4116L32.9378 21.6514C33.352 21.5851 33.6809 21.2673 33.7612 20.8555L35.5968 11.4476C35.7608 10.6071 36.8364 10.3481 37.365 11.0218L39.7881 14.11C40.2416 14.6879 41.1425 14.5961 41.47 13.9385L47.5123 1.806C47.8811 1.06549 48.9383 1.06751 49.3043 1.80943L53 9.30181L59.0601 21.5078C59.3863 22.1647 60.2852 22.2587 60.7401 21.6834L65.5569 15.5927C65.6796 15.4375 65.8456 15.3222 66.0339 15.2614L70.1005 13.9478C70.537 13.8068 71.0135 13.9808 71.2563 14.37L76.5459 22.8466C76.8746 23.3733 77.5988 23.4763 78.0613 23.0622L82.7358 18.8772C83.1869 18.4733 83.8906 18.5598 84.2305 19.0609L92.3424 31.0213C92.6897 31.5333 93.4138 31.6104 93.861 31.1829L97.5471 27.6595C97.6832 27.5294 97.8533 27.4403 98.0377 27.4026L107.183 25.5325C107.419 25.4842 107.665 25.5229 107.875 25.6416L116.021 30.2432C116.149 30.3157 116.292 30.3589 116.439 30.3698L122.395 30.8097C122.68 30.8308 122.96 30.7289 123.165 30.5298L131 22.9207" stroke="#193BB1" stroke-opacity="0.5" stroke-width="2" stroke-linecap="round" stroke-linejoin="round"/>
</svg>
